<svg xmlns="http://www.w3.org/2000/svg" width="40" height="40" viewBox="0 0 40 40" fill="none">
  <path d="M0.5 19.9057C0.5 9.46385 8.96483 0.999023 19.4067 0.999023H20.5933C31.0352 0.999023 39.5 9.46385 39.5 19.9057C39.5 30.3476 31.0352 38.8125 20.5933 38.8125H19.4067C8.96483 38.8125 0.5 30.3476 0.5 19.9057Z" fill="white" fill-opacity="0.7" stroke="#999999"/>
  <path d="M25.3033 23.8656L20.8286 19.5237L25.3033 15.1817C25.5321 14.9597 25.5321 14.5997 25.3033 14.3777C25.0745 14.1556 24.7035 14.1556 24.4747 14.3777L20 18.7196L15.5253 14.3777C15.2965 14.1556 14.9255 14.1556 14.6967 14.3777C14.4679 14.5997 14.4679 14.9597 14.6967 15.1817L19.1714 19.5237L14.6967 23.8656C14.4679 24.0876 14.4679 24.4476 14.6967 24.6696C14.9255 24.8917 15.2965 24.8917 15.5253 24.6696L20 20.3277L24.4747 24.6696C24.7035 24.8917 25.0745 24.8917 25.3033 24.6696C25.5321 24.4476 25.5321 24.0876 25.3033 23.8656Z" fill="#999999" stroke="#999999" stroke-width="0.54"/>
</svg>