<?xml version="1.0" encoding="UTF-8" standalone="no"?>
<!DOCTYPE svg PUBLIC "-//W3C//DTD SVG 20010904//EN"
              "http://www.w3.org/TR/2001/REC-SVG-20010904/DTD/svg10.dtd">

<svg xmlns="http://www.w3.org/2000/svg"
     width="0.633333in" height="0.5in"
     viewBox="0 0 57 45">
  <path fill="#999999" stroke="#999999" stroke-width="1"
        d="M 1.54,3.00
           C 0.77,3.00 0.00,3.78 0.00,4.56
             0.00,5.34 0.77,6.12 1.54,6.12
             1.54,6.12 5.58,6.12 5.58,6.12
             5.58,6.12 8.85,18.62 8.85,18.62
             8.85,18.62 11.15,28.38 11.15,28.38
             11.54,29.94 12.88,31.11 14.42,31.11
             14.42,31.11 37.50,31.11 37.50,31.11
             39.04,31.11 40.38,30.14 40.77,28.58
             40.77,28.58 42.00,23.06 41.31,22.19
             41.31,22.25 40.50,21.62 39.44,20.56
             40.00,20.62 34.12,18.06 35.50,10.56
             35.50,10.56 9.81,10.42 9.81,10.42
             9.81,10.42 8.27,4.17 8.27,4.17
             8.27,4.17 8.27,4.17 8.27,3.98
             7.88,3.39 7.31,3.00 6.73,3.00
             6.73,3.00 1.54,3.00 1.54,3.00 Z
           M 33.25,13.19
           C 34.62,24.69 40.62,17.56 38.38,27.88
             38.38,27.88 14.23,27.80 14.23,27.80
             14.23,27.80 10.77,13.35 10.77,13.35
             10.77,13.35 33.25,13.19 33.25,13.19 Z
           M 47.88,29.31M 46.19,32.38" />
    <path fill="#999999" stroke="#999999" stroke-width="1"
        d="M 54.72,8.10
           C 54.17,6.78 53.36,5.62 52.33,4.60
             51.31,3.58 50.14,2.78 48.81,2.23
             47.44,1.68 46.00,1.38 44.50,1.38
             43.00,1.38 41.56,1.68 40.17,2.23
             38.83,2.78 37.67,3.58 36.64,4.60
             35.61,5.62 34.83,6.81 34.25,8.10
             33.69,9.48 33.39,10.91 33.39,12.40
             33.39,13.89 33.69,15.32 34.25,16.70
             34.81,18.02 35.61,19.18 36.64,20.20
             37.67,21.22 38.83,22.02 40.17,22.57
             41.56,23.12 43.00,23.42 44.50,23.42
             46.00,23.42 47.44,23.12 48.83,22.57
             50.17,22.02 51.33,21.22 52.36,20.20
             53.39,19.18 54.17,17.99 54.75,16.70
             55.31,15.32 55.61,13.89 55.61,12.40
             55.61,10.91 55.31,9.48 54.72,8.10 Z
           M 51.42,19.29
           C 49.58,21.11 47.11,22.13 44.50,22.13
             41.89,22.13 39.42,21.11 37.58,19.29
             35.72,17.44 34.72,14.99 34.72,12.40
             34.72,9.81 35.75,7.36 37.58,5.51
             39.42,3.69 41.89,2.67 44.50,2.67
             47.11,2.67 49.58,3.69 51.42,5.51
             53.28,7.36 54.28,9.78 54.28,12.40
             54.28,15.02 53.28,17.44 51.42,19.29 Z
           M 54.72,8.10
           C 54.17,6.78 53.36,5.62 52.33,4.60
             51.31,3.58 50.14,2.78 48.81,2.23
             47.44,1.68 46.00,1.38 44.50,1.38
             43.00,1.38 41.56,1.68 40.17,2.23
             38.83,2.78 37.67,3.58 36.64,4.60
             35.61,5.62 34.83,6.81 34.25,8.10
             33.69,9.48 33.39,10.91 33.39,12.40
             33.39,13.89 33.69,15.32 34.25,16.70
             34.81,18.02 35.61,19.18 36.64,20.20
             37.67,21.22 38.83,22.02 40.17,22.57
             41.56,23.12 43.00,23.42 44.50,23.42
             46.00,23.42 47.44,23.12 48.83,22.57
             50.17,22.02 51.33,21.22 52.36,20.20
             53.39,19.18 54.17,17.99 54.75,16.70
             55.31,15.32 55.61,13.89 55.61,12.40
             55.61,10.91 55.31,9.48 54.72,8.10 Z
           M 51.42,19.29
           C 49.58,21.11 47.11,22.13 44.50,22.13
             41.89,22.13 39.42,21.11 37.58,19.29
             35.72,17.44 34.72,14.99 34.72,12.40
             34.72,9.81 35.75,7.36 37.58,5.51
             39.42,3.69 41.89,2.67 44.50,2.67
             47.11,2.67 49.58,3.69 51.42,5.51
             53.28,7.36 54.28,9.78 54.28,12.40
             54.28,15.02 53.28,17.44 51.42,19.29 Z
           M 40.03,1.87
           C 41.46,1.30 42.95,0.99 44.50,0.99
             46.05,0.99 47.54,1.30 48.95,1.87
             48.95,1.87 48.95,1.87 48.95,1.87
             48.95,1.87 48.95,1.87 48.95,1.87
             50.33,2.44 51.54,3.27 52.60,4.32
             53.66,5.38 54.49,6.57 55.07,7.95
             55.67,9.37 55.99,10.86 55.99,12.40
             55.99,13.94 55.67,15.43 55.10,16.85
             55.10,16.85 55.10,16.85 55.10,16.85
             55.10,16.85 55.10,16.86 55.10,16.86
             54.50,18.19 53.69,19.42 52.63,20.48
             51.57,21.53 50.36,22.36 48.98,22.93
             48.98,22.93 48.97,22.93 48.97,22.93
             48.97,22.93 48.97,22.93 48.97,22.93
             47.54,23.50 46.05,23.81 44.50,23.81
             42.95,23.81 41.46,23.50 40.03,22.93
             40.03,22.93 40.02,22.93 40.02,22.93
             40.02,22.93 40.02,22.93 40.02,22.93
             38.64,22.36 37.43,21.53 36.37,20.48
             35.31,19.42 34.48,18.22 33.90,16.85
             33.90,16.85 33.90,16.85 33.90,16.85
             33.90,16.85 33.90,16.85 33.90,16.85
             33.33,15.43 33.01,13.94 33.01,12.40
             33.01,10.86 33.33,9.37 33.90,7.95
             33.90,7.95 33.90,7.95 33.90,7.95
             33.90,7.95 33.90,7.94 33.90,7.94
             34.50,6.61 35.31,5.38 36.37,4.32
             37.43,3.27 38.64,2.44 40.02,1.87
             40.02,1.87 40.03,1.87 40.03,1.87
             40.03,1.87 40.03,1.87 40.03,1.87 Z
           M 40.31,2.59
           C 39.02,3.12 37.90,3.89 36.90,4.88
             35.92,5.86 35.16,7.00 34.60,8.26
             34.06,9.59 33.77,10.97 33.77,12.40
             33.77,13.83 34.06,15.21 34.60,16.55
             35.13,17.82 35.91,18.93 36.90,19.92
             37.90,20.91 39.02,21.68 40.31,22.21
             41.66,22.74 43.05,23.03 44.50,23.03
             45.95,23.03 47.34,22.74 48.69,22.21
             49.98,21.68 51.10,20.91 52.10,19.92
             53.08,18.94 53.83,17.80 54.40,16.54
             54.94,15.21 55.23,13.83 55.23,12.40
             55.23,10.97 54.94,9.59 54.37,8.25
             54.37,8.25 54.37,8.25 54.37,8.25
             53.84,6.98 53.06,5.87 52.07,4.88
             51.07,3.89 49.95,3.12 48.66,2.59
             47.34,2.06 45.95,1.77 44.50,1.77
             43.05,1.77 41.66,2.06 40.31,2.59 Z
           M 37.85,5.79
           C 36.09,7.56 35.10,9.92 35.10,12.40
             35.10,14.89 36.06,17.24 37.85,19.01
             39.61,20.76 41.99,21.74 44.50,21.74
             47.01,21.74 49.39,20.76 51.15,19.01
             52.94,17.24 53.90,14.91 53.90,12.40
             53.90,9.89 52.94,7.56 51.15,5.79
             49.39,4.04 47.01,3.06 44.50,3.06
             41.99,3.06 39.61,4.04 37.85,5.79 Z
           M 37.32,5.23
           C 39.22,3.34 41.79,2.29 44.50,2.29
             47.21,2.29 49.78,3.34 51.68,5.23
             53.62,7.15 54.66,9.68 54.66,12.40
             54.66,15.12 53.62,17.65 51.68,19.57
             49.78,21.46 47.21,22.51 44.50,22.51
             41.79,22.51 39.22,21.46 37.32,19.57
             35.38,17.65 34.34,15.09 34.34,12.40
             34.34,9.70 35.41,7.15 37.32,5.24
             37.32,5.24 37.32,5.23 37.32,5.23
             37.32,5.23 37.32,5.23 37.32,5.23 Z
           M 46.05,15.75
           C 45.29,15.52 44.67,15.50 44.50,15.50
             43.47,15.50 42.49,15.80 41.63,16.36
             41.29,16.57 41.01,16.81 40.82,17.00
             40.63,17.18 40.67,17.47 40.88,17.63
             41.05,17.76 41.32,17.74 41.48,17.58
             41.94,17.13 42.97,16.34 44.50,16.34
             44.69,16.34 46.32,16.38 47.52,17.56
             47.68,17.72 47.95,17.74 48.12,17.61
             48.33,17.47 48.37,17.18 48.18,16.99
             47.62,16.43 46.88,16.00 46.05,15.75 Z
           M 41.11,11.46
           C 42.02,11.46 42.75,10.74 42.75,9.84
             42.75,8.94 42.02,8.21 41.11,8.21
             40.21,8.21 39.47,8.94 39.47,9.84
             39.47,10.74 40.21,11.46 41.11,11.46 Z
           M 47.89,11.46
           C 48.79,11.46 49.53,10.74 49.53,9.84
             49.53,8.94 48.79,8.21 47.89,8.21
             46.98,8.21 46.25,8.94 46.25,9.84
             46.25,10.74 46.98,11.46 47.89,11.46 Z" />
  <path fill="#999999" stroke="#999999" stroke-width="1"
        d="M 18.65,33.65
           C 15.77,33.65 13.46,36.00 13.46,38.92
             13.46,41.85 15.77,44.00 18.65,44.00
             21.54,44.00 23.85,41.66 23.85,38.73
             23.85,35.80 21.54,33.65 18.65,33.65 Z
           M 21.15,38.73
           C 21.15,40.10 20.00,41.27 18.65,41.27
             17.31,41.27 16.15,40.10 16.15,38.73
             16.15,37.36 17.31,36.19 18.65,36.19
             20.00,36.19 21.15,37.36 21.15,38.73 Z
           M 32.50,33.65
           C 29.62,33.65 27.31,36.00 27.31,38.92
             27.31,41.85 29.62,44.20 32.50,44.20
             35.38,44.20 37.69,41.85 37.69,38.92
             37.69,36.00 35.38,33.65 32.50,33.65 Z
           M 35.00,38.73
           C 35.00,40.10 33.85,41.27 32.50,41.27
             31.15,41.27 30.00,40.10 30.00,38.73
             30.00,37.36 31.15,36.19 32.50,36.19
             33.85,36.19 35.00,37.36 35.00,38.73 Z" />
</svg>
