<svg xmlns="http://www.w3.org/2000/svg" width="32" height="32" viewBox="0 0 32 32" fill="none">
  <path d="M14.8771 11.334C13.6577 11.334 12.5752 12.1143 12.1895 13.2711C11.5781 15.1055 12.9435 16.9999 14.8771 16.9999H17.1228C17.6914 16.9999 18.0928 17.557 17.9131 18.0963C17.7997 18.4365 17.4814 18.6659 17.1228 18.6659H12.556V20.6659H15V21.8887H17V20.6659H17.1228C18.3422 20.6659 19.4248 19.8856 19.8104 18.7288C20.4219 16.8944 19.0565 14.9999 17.1228 14.9999H14.8771C14.3086 14.9999 13.9071 14.4429 14.0869 13.9036C14.2003 13.5634 14.5186 13.334 14.8771 13.334H19.444V11.334H17V10.1115H15V11.334H14.8771Z" fill="#F5F5F5"/>
  <path fill-rule="evenodd" clip-rule="evenodd" d="M27 16C27 9.92487 22.0751 5 16 5C9.92487 5 5 9.92487 5 16C5 22.0751 9.92487 27 16 27C22.0751 27 27 22.0751 27 16ZM16 7C20.9706 7 25 11.0294 25 16C25 20.9706 20.9706 25 16 25C11.0294 25 7 20.9706 7 16C7 11.0294 11.0294 7 16 7Z" fill="#F5F5F5"/>
</svg>